<svg width="24" height="24" viewBox="0 0 24 24" fill="none" xmlns="http://www.w3.org/2000/svg">
    <circle cx="12" cy="12" r="12" fill="#130160"/>
    <path d="M17.1875 8.28125H15.5633L14.7646 7.08359C14.7219 7.01946 14.6639 6.96688 14.596 6.93049C14.528 6.89411 14.4521 6.87505 14.375 6.875H10.625C10.5479 6.87505 10.472 6.89411 10.404 6.93049C10.3361 6.96688 10.2781 7.01946 10.2354 7.08359L9.43613 8.28125H7.8125C7.43954 8.28125 7.08185 8.42941 6.81813 8.69313C6.55441 8.95685 6.40625 9.31454 6.40625 9.6875V16.25C6.40625 16.623 6.55441 16.9806 6.81813 17.2444C7.08185 17.5081 7.43954 17.6562 7.8125 17.6562H17.1875C17.5605 17.6562 17.9181 17.5081 18.1819 17.2444C18.4456 16.9806 18.5938 16.623 18.5938 16.25V9.6875C18.5938 9.31454 18.4456 8.95685 18.1819 8.69313C17.9181 8.42941 17.5605 8.28125 17.1875 8.28125ZM14.6094 12.7344C14.6094 13.1516 14.4857 13.5594 14.2539 13.9063C14.0221 14.2532 13.6927 14.5235 13.3072 14.6832C12.9218 14.8428 12.4977 14.8846 12.0885 14.8032C11.6793 14.7218 11.3034 14.5209 11.0084 14.2259C10.7134 13.9309 10.5125 13.5551 10.4312 13.1459C10.3498 12.7367 10.3915 12.3126 10.5512 11.9272C10.7108 11.5417 10.9812 11.2123 11.3281 10.9805C11.675 10.7487 12.0828 10.625 12.5 10.625C13.0594 10.625 13.596 10.8472 13.9916 11.2428C14.3871 11.6384 14.6094 12.1749 14.6094 12.7344Z" fill="white"/>
</svg>
