<svg width="93" height="93" viewBox="0 0 93 93" fill="none" xmlns="http://www.w3.org/2000/svg">
    <circle cx="46.5" cy="46.5" r="46.5" fill="#EBDFFF"/>
    <path d="M46.5002 26.0833C41.151 26.0833 36.8022 30.432 36.8022 35.7812C36.8022 41.0283 40.906 45.2749 46.2552 45.4587C46.4185 45.4382 46.5818 45.4382 46.7043 45.4587C46.7452 45.4587 46.7656 45.4587 46.8064 45.4587C46.8268 45.4587 46.8268 45.4587 46.8472 45.4587C52.0739 45.2749 56.1777 41.0283 56.1981 35.7812C56.1981 30.432 51.8493 26.0833 46.5002 26.0833Z" fill="#130160"/>
    <path d="M56.8715 50.8896C51.1752 47.0921 41.8856 47.0921 36.1485 50.8896C33.5556 52.625 32.1265 54.973 32.1265 57.4842C32.1265 59.9955 33.5556 62.323 36.1281 64.038C38.9865 65.9571 42.7431 66.9167 46.4998 66.9167C50.2565 66.9167 54.0131 65.9571 56.8715 64.038C59.444 62.3025 60.8731 59.975 60.8731 57.4434C60.8527 54.9321 59.444 52.6046 56.8715 50.8896Z" fill="#130160"/>
</svg>
